# xmcd
#
# Track frame offsets:
#	150
#	15333
#	31936
#	56564
#	74861
#	89718
#	104188
#	126017
#	141860
#	163160
#	177217
#	197010
#	215956
#	230777
#	248075
#	265013
#	274489
#
# Disc length: 3839 seconds
# Revision: 0
# Processed by: cddbd v1.5.2PL0 Copyright (c) Steve Scherf et al.
# Submitted via: dBpowerAMP V12.0
#
DISCID=0f0efd11
DTITLE=Jemima James - Book Me Back in Your Dreams
DYEAR=2004
DGENRE=Folk
TTITLE0=Tracking Through the Snow
TTITLE1=Emergency Call
TTITLE2=The Girl with the Long Dark Hair
TTITLE3=My Baby's Heart
TTITLE4=I'd Rather Say Goodbye Right Here
TTITLE5=You Weren't There (When Our Love Died)
TTITLE6=Walk All Over Georgia
TTITLE7=I Got Him Now
TTITLE8=Look at the Children Run
TTITLE9=The Boy Who Used to Be
TTITLE10=Dog Following Me
TTITLE11=Small Town Girls
TTITLE12=Let Me Make a Run for It
TTITLE13=There's Nothing More to Say
TTITLE14=Book Me Back in Your Dreams
TTITLE15=Takes a Man Like You
TTITLE16=Havana Cigar
EXTD=
EXTT0=
EXTT1=
EXTT2=
EXTT3=
EXTT4=
EXTT5=
EXTT6=
EXTT7=
EXTT8=
EXTT9=
EXTT10=
EXTT11=
EXTT12=
EXTT13=
EXTT14=
EXTT15=
EXTT16=
PLAYORDER=
